<svg xmlns="http://www.w3.org/2000/svg" width="32" height="32" id="file"><path fill-rule="evenodd" d="M20.488.998a.5.5 0 0 0-.074.006H6.996c-1.1 0-2 .9-2 2v26c0 1.1.9 2 2 2h18c1.1 0 2-.9 2-2v-.752c0-.015.004-.03.004-.045v-5.686a.52.52 0 0 0-.004-.064V7.582a.5.5 0 0 0-.195-.48l-5.906-5.907a.5.5 0 0 0-.407-.197zM6.996 2.004h13v4c0 1.1.9 2 2 2h4V22h-20V3.004c0-.563.437-1 1-1zm14 .707 4.293 4.293h-3.293c-.563 0-1-.437-1-1V2.71zm-2.54 9.285v.006a.5.5 0 0 0-.345.861l2.672 2.64-2.672 2.643a.5.5 0 1 0 .703.711l2.989-2.955a.5.5 0 0 0 .17-.547.5.5 0 0 0-.04-.091.5.5 0 0 0-.019-.035.5.5 0 0 0-.006-.01.5.5 0 0 0-.006-.01.5.5 0 0 0-.025-.031.5.5 0 0 0-.006-.01.5.5 0 0 0-.027-.03.5.5 0 0 0-.002 0l-.02-.017a.5.5 0 0 0-.015-.016l-2.993-2.959a.5.5 0 0 0-.359-.15zm-4.933.006a.5.5 0 0 0-.343.15l-3.03 2.993a.5.5 0 0 0-.013.013.5.5 0 0 0 .052.744l2.99 2.955a.5.5 0 1 0 .704-.71l-2.674-2.643 2.674-2.64a.5.5 0 0 0-.36-.862zM6.041 23.041H25.959v5.166c0 1.026-.663 1.754-1.385 1.754H7.426c-.722 0-1.385-.728-1.385-1.754v-5.166zM20.465 24v.002a.5.5 0 0 0-.37.207L19 25.676l-1.098-1.467h-.004a.5.5 0 0 0-.408-.2.5.5 0 0 0-.492.507v3.99a.5.5 0 1 0 1 0v-2.504l.498.664a.5.5 0 0 0 .902.139l.6-.801v2.502a.5.5 0 1 0 1 0v-3.963a.5.5 0 0 0-.482-.543.5.5 0 0 0-.051 0zm-11.973.012a.5.5 0 0 0-.492.506V28.508a.5.5 0 1 0 1 0v-1.494h2v1.494a.5.5 0 1 0 1 0v-1.916a.5.5 0 0 0 0-.16v-1.914a.5.5 0 0 0-.508-.506.5.5 0 0 0-.492.506v1.496H9v-1.496a.5.5 0 0 0-.508-.506zm5.008 0a.5.5 0 1 0 0 1h.5v3.494a.5.5 0 1 0 1 0v-3.494h.5a.5.5 0 1 0 0-1h-.947a.5.5 0 0 0-.06 0 .5.5 0 0 0-.052 0H13.5zm8.99 0a.5.5 0 0 0-.492.506v3.953a.5.5 0 0 0 .02.181.5.5 0 0 0 .003.016.5.5 0 0 0 .014.035.5.5 0 0 0 .027.057.5.5 0 0 0 .02.031.5.5 0 0 0 .006.01.5.5 0 0 0 .023.03.5.5 0 0 0 .026.024.5.5 0 0 0 .011.016.5.5 0 0 0 .026.022.5.5 0 0 0 .014.011.5.5 0 0 0 .011.01.5.5 0 0 0 .035.023.5.5 0 0 0 .077.04.5.5 0 0 0 .027.01.5.5 0 0 0 .168.027h1.986a.5.5 0 1 0 0-1h-1.494v-3.496a.5.5 0 0 0-.508-.506z" color="#000" font-family="sans-serif" font-weight="400" overflow="visible" style="line-height:normal;text-indent:0;text-align:start;text-decoration-line:none;text-decoration-style:solid;text-decoration-color:#000;text-transform:none;block-progression:tb;white-space:normal;isolation:auto;mix-blend-mode:normal;solid-color:#000;solid-opacity:1"></path></svg>