<?xml version="1.0" standalone="no"?>
<!DOCTYPE svg PUBLIC "-//W3C//DTD SVG 20010904//EN"
 "http://www.w3.org/TR/2001/REC-SVG-20010904/DTD/svg10.dtd">
<svg version="1.0" xmlns="http://www.w3.org/2000/svg"
 width="832.000000pt" height="828.000000pt" viewBox="0 0 832.000000 828.000000"
 preserveAspectRatio="xMidYMid meet">
 <circle cx="416" cy="414" r="414" fill="white"/>

<g transform="translate(0.000000,828.000000) scale(0.100000,-0.100000)"
fill="#000000" stroke="none">
<path d="M3665 7807 c20 -15 20 -15 -5 -20 -14 -3 -36 -5 -49 -5 -13 -1 -32
-8 -42 -18 -14 -13 -28 -15 -63 -10 -27 4 -47 3 -51 -4 -3 -5 -21 -10 -40 -10
-18 0 -56 -11 -83 -25 -28 -14 -56 -25 -64 -25 -7 0 -38 -16 -68 -36 -77 -52
-175 -104 -282 -153 -27 -12 -48 -25 -48 -30 0 -5 -20 -16 -45 -25 -25 -10
-48 -24 -52 -31 -5 -7 -35 -42 -68 -77 -33 -35 -74 -81 -91 -101 -17 -20 -35
-33 -39 -29 -5 4 -5 2 -2 -4 7 -12 -34 -55 -70 -73 -13 -6 -23 -19 -23 -29 0
-9 -16 -32 -35 -51 -19 -19 -35 -38 -35 -42 0 -5 -13 -28 -28 -51 -54 -80 -88
-143 -126 -233 -39 -90 -39 -90 -40 -232 -1 -78 -4 -145 -8 -148 -3 -4 -2 -22
4 -41 5 -21 6 -40 0 -47 -15 -20 -15 -109 0 -118 10 -6 10 -11 0 -21 -20 -20
-14 -40 10 -36 11 2 23 -2 25 -8 2 -7 -4 -11 -13 -10 -23 1 -30 -69 -8 -78 10
-4 21 8 35 41 11 26 16 49 11 51 -5 1 3 15 17 31 14 16 32 26 39 23 10 -3 9
-10 -6 -26 -19 -21 -45 -77 -49 -106 -1 -8 -14 -25 -28 -38 -14 -12 -24 -26
-20 -31 3 -5 1 -12 -5 -16 -5 -3 -10 -12 -10 -18 1 -7 10 -1 20 12 13 15 27
21 39 18 15 -3 22 4 34 34 9 22 12 37 7 34 -17 -10 -16 31 1 66 21 43 49 59
49 28 0 -12 -8 -23 -20 -26 -11 -3 -20 -13 -19 -22 0 -10 2 -11 6 -3 2 6 10
12 18 12 7 0 18 14 25 30 7 17 16 30 20 30 4 0 11 12 14 27 8 28 -8 47 -33 38
-11 -4 -12 6 -6 52 8 67 11 74 28 67 9 -3 17 13 26 46 7 28 11 54 8 57 -3 3
-9 -12 -13 -33 -6 -33 -8 -36 -16 -19 -6 15 -7 13 -4 -10 3 -16 3 -24 0 -17
-3 6 -12 12 -19 12 -17 0 -37 34 -27 44 3 4 0 11 -8 16 -10 7 -11 10 -2 10 6
0 12 7 12 16 0 9 -5 12 -12 8 -8 -5 -9 -2 -4 12 4 10 9 29 11 42 1 12 6 26 10
30 4 4 4 -4 0 -17 -5 -17 -4 -21 5 -16 9 6 9 2 0 -15 -8 -15 -8 -26 -2 -32 6
-6 17 9 31 46 12 31 21 61 21 65 0 5 7 15 17 22 15 13 15 12 5 -8 -7 -12 -12
-30 -12 -40 0 -11 -12 -43 -26 -72 -14 -29 -23 -56 -20 -59 3 -3 11 9 17 26
12 35 29 43 29 15 1 -17 1 -17 11 -1 5 9 16 15 23 12 7 -3 21 2 30 11 14 15
16 15 16 1 0 -9 -5 -16 -11 -16 -9 0 -28 -37 -43 -87 -10 -32 6 -29 27 5 9 15
25 38 35 51 l19 24 -5 -51 c-3 -34 -1 -52 6 -52 8 0 9 -8 2 -26 -23 -59 -6
-43 46 46 54 92 73 115 84 103 3 -3 -1 -8 -8 -10 -25 -9 -69 -116 -69 -168
l-1 -50 19 44 c13 29 24 41 33 38 12 -5 18 4 24 36 4 19 50 95 75 121 15 16
27 35 27 42 0 8 4 14 10 14 5 0 6 -7 3 -17 -4 -10 -2 -14 5 -10 6 4 14 22 18
39 6 30 28 57 47 58 5 0 5 -6 1 -12 -4 -7 8 1 26 17 26 24 32 26 26 10 -5 -14
2 -10 23 13 17 18 34 39 38 46 4 8 29 16 54 19 47 5 53 9 129 93 19 21 26 31
14 21 -53 -44 -33 6 30 72 34 37 36 41 11 24 -49 -35 -85 -77 -87 -106 -1 -14
-8 -29 -15 -31 -7 -3 -13 -12 -13 -20 0 -7 -7 -17 -16 -20 -25 -10 -26 -7 -10
16 21 29 20 39 -1 31 -10 -4 -4 5 12 19 35 31 28 47 -9 23 -14 -10 -26 -14
-26 -10 0 5 -29 -20 -64 -53 -35 -34 -67 -62 -71 -62 -12 0 33 55 89 108 56
52 97 72 60 30 l-19 -22 28 17 c15 10 31 15 36 12 5 -3 24 12 42 33 29 33 121
102 137 102 3 0 -5 -11 -18 -25 -18 -19 -20 -25 -8 -25 9 0 21 7 28 15 14 17
35 21 25 5 -11 -18 3 -11 31 15 15 14 29 23 32 21 7 -7 -70 -78 -107 -99 -17
-10 -31 -14 -31 -8 0 5 6 12 13 14 6 3 8 6 2 6 -19 1 -46 -27 -49 -51 -1 -13
-6 -30 -10 -38 -4 -8 2 -4 13 9 12 13 21 21 21 18 0 -3 14 8 31 23 16 16 36
27 45 23 7 -3 14 -1 14 4 0 5 22 21 50 34 29 14 49 31 50 40 0 9 7 19 15 23 8
3 20 17 25 32 8 19 15 25 30 21 15 -4 20 0 20 14 0 10 5 19 11 19 6 0 8 -7 5
-16 -3 -9 -6 -20 -6 -26 0 -6 -7 -8 -15 -5 -13 6 -33 -16 -60 -63 -7 -13 -6
-13 7 -2 8 7 23 9 32 6 12 -5 19 0 23 15 6 25 18 27 27 5 3 -8 2 -13 -3 -10
-5 3 -14 -1 -21 -10 -7 -8 -19 -13 -26 -10 -8 3 -18 -4 -24 -14 -9 -17 -7 -22
15 -30 15 -6 31 -8 36 -4 14 8 11 -19 -7 -62 -9 -22 -12 -34 -7 -29 49 57 56
67 44 60 -9 -5 -12 -3 -9 6 3 8 14 15 26 17 l22 3 -25 -49 c-23 -46 -36 -95
-17 -65 5 8 13 6 29 -7 12 -9 19 -21 15 -24 -3 -4 1 -4 10 -1 11 4 16 17 16
36 -1 16 2 32 5 36 4 3 7 -1 7 -10 0 -9 5 -17 10 -17 9 0 14 17 13 48 -1 6 3
12 8 12 5 0 7 6 5 13 -1 6 -1 9 1 5 8 -14 23 -9 23 7 0 8 5 15 10 15 11 0 14
-18 11 -66 -2 -23 4 -33 23 -44 19 -9 26 -22 26 -42 0 -15 4 -28 10 -28 5 0 7
7 4 15 -4 8 -2 15 4 15 6 0 13 -6 15 -12 3 -8 6 -6 6 5 1 25 19 21 24 -5 3
-20 5 -18 12 10 8 35 25 53 25 28 0 -9 7 -16 16 -16 12 0 15 6 10 25 -7 29 1
32 20 8 17 -24 36 -23 51 2 12 20 12 20 13 -3 0 -18 4 -22 18 -17 12 3 30 -4
47 -17 16 -13 26 -17 21 -10 -4 6 -2 12 3 12 6 0 11 -11 11 -24 0 -26 38 -87
59 -94 8 -3 11 0 7 7 -11 17 10 13 24 -4 11 -13 14 -13 25 2 13 17 14 17 34
-1 19 -17 21 -17 27 -2 3 9 4 22 1 30 -3 8 1 20 9 26 11 10 14 10 14 -1 1 -8
10 4 22 26 27 53 49 77 65 71 7 -3 13 -1 13 4 0 6 5 10 11 10 6 0 18 7 26 16
9 8 24 13 34 11 12 -3 16 0 12 9 -6 17 18 19 35 2 7 -7 12 -21 12 -31 0 -11
14 -38 32 -61 17 -22 33 -43 35 -45 2 -3 10 5 18 17 14 19 47 23 63 7 3 -2 11
0 18 6 8 7 14 7 19 -1 13 -22 25 -8 25 30 0 22 -4 40 -10 40 -18 0 -11 18 9
23 11 3 29 -2 40 -10 12 -8 25 -12 30 -9 5 3 11 -8 14 -24 5 -24 14 -31 46
-40 21 -5 46 -8 54 -4 9 3 26 0 39 -7 13 -8 34 -15 47 -16 14 -1 37 -7 51 -13
15 -6 31 -10 36 -9 12 3 46 -11 65 -28 14 -12 17 -12 22 1 4 9 13 13 22 10 12
-5 14 -2 8 12 -6 17 -5 17 10 5 11 -9 17 -10 17 -2 0 6 5 11 10 11 6 0 10 -9
10 -20 0 -11 5 -20 10 -20 6 0 10 9 10 19 0 11 4 21 9 23 5 2 5 14 -1 28 -7
20 -11 22 -18 10 -7 -12 -10 -12 -16 4 -4 10 -10 13 -13 8 -3 -5 -17 11 -30
36 -17 33 -19 43 -7 33 9 -7 16 -10 16 -5 0 4 11 -7 24 -25 16 -21 26 -28 29
-19 5 15 47 -75 47 -103 0 -10 5 -19 11 -19 15 0 89 -65 111 -98 10 -15 18
-23 18 -18 0 5 10 1 22 -10 l22 -19 -17 27 c-14 22 -14 28 -3 38 11 8 16 8 22
-1 5 -8 3 -9 -6 -4 -14 9 -12 3 15 -42 20 -33 35 -42 35 -23 0 6 -4 10 -10 10
-5 0 -10 8 -10 18 0 14 4 12 20 -8 10 -14 17 -26 15 -29 -3 -2 5 -15 15 -29
32 -40 25 -63 -9 -27 -56 60 -76 71 -38 21 21 -27 39 -59 42 -70 12 -66 15
-89 7 -81 -14 15 -32 76 -26 86 3 5 -3 12 -13 16 -10 3 -26 13 -35 21 -23 19
-23 15 3 -37 17 -36 18 -45 7 -52 -10 -7 -10 -9 0 -9 7 0 12 -13 12 -29 0 -17
3 -32 8 -34 4 -3 7 -34 7 -69 0 -50 4 -67 20 -83 27 -27 32 -70 8 -61 -14 6
-15 4 -6 -5 6 -6 9 -18 6 -27 -5 -12 -1 -14 15 -10 17 5 22 2 22 -12 0 -10 9
-20 20 -23 11 -3 20 -1 20 3 0 4 9 6 20 3 11 -3 20 -11 20 -18 0 -8 14 -23 30
-35 29 -20 30 -20 30 -2 0 10 -11 29 -25 42 -13 12 -22 27 -19 31 3 5 0 17 -6
26 -9 15 -10 14 -4 -7 7 -28 1 -24 -40 33 -15 21 -26 41 -23 44 3 3 12 -4 19
-16 7 -12 16 -21 21 -21 4 0 6 4 2 9 -3 5 -1 12 5 16 5 3 10 16 10 27 0 20 1
21 20 3 24 -22 25 -14 5 26 -9 16 -20 27 -24 24 -5 -2 -11 3 -14 13 -2 9 -8
26 -13 36 -5 13 -4 17 3 13 7 -5 9 1 5 15 -3 14 -2 19 6 14 17 -11 15 15 -4
35 -8 9 -16 29 -18 45 -2 15 -8 30 -15 32 -6 2 -8 8 -5 14 4 6 10 5 15 -3 8
-12 12 -11 23 3 7 10 17 14 21 10 5 -4 5 -1 1 6 -4 7 -11 10 -14 8 -4 -2 -7
13 -7 35 0 21 3 39 7 39 7 0 4 17 -12 55 -18 44 -30 89 -24 94 3 3 14 -5 24
-19 l20 -25 0 32 c0 17 -5 44 -10 60 l-10 28 20 -25 c22 -28 24 -23 9 39 -11
49 -4 85 16 77 10 -4 11 3 3 32 -5 20 -12 44 -15 52 -3 8 -7 20 -7 25 -3 23
-18 55 -26 55 -5 0 -7 6 -4 14 3 8 -6 31 -20 53 -22 35 -121 140 -160 171 -9
7 -16 21 -16 31 0 10 -17 31 -37 47 -55 40 -112 99 -89 90 16 -5 17 -4 6 9 -7
8 -31 20 -54 26 -44 12 -66 25 -66 41 0 6 7 5 15 -2 8 -7 15 -8 15 -3 0 15
-23 33 -41 33 -9 0 -22 6 -28 13 -6 8 -30 20 -53 27 -24 8 -53 20 -65 28 -12
7 -28 10 -35 6 -7 -4 -10 -4 -6 1 11 12 -59 57 -85 54 -30 -3 -107 11 -107 20
0 9 -49 35 -66 36 -6 0 -29 13 -51 28 -21 15 -44 27 -49 27 -6 0 -38 14 -72
31 -34 17 -72 29 -84 28 -13 -2 -32 2 -43 8 -11 6 -60 13 -110 17 -49 3 -108
11 -130 19 -40 13 -111 13 -275 3 -113 -8 -142 -7 -155 4 -6 5 -31 12 -55 16
-42 6 -44 5 -25 -9z m1605 -491 c0 -3 -4 -8 -10 -11 -5 -3 -10 -1 -10 4 0 6 5
11 10 11 6 0 10 -2 10 -4z m231 -348 c28 -40 34 -55 22 -51 -17 7 -17 6 0 -17
9 -14 20 -32 23 -40 3 -8 10 -24 14 -35 5 -11 18 -47 29 -80 20 -58 20 -59 2
-37 -12 13 -22 18 -26 12 -3 -5 -1 -10 5 -10 7 0 10 -19 7 -57 -3 -32 -1 -80
5 -108 15 -80 16 -114 3 -118 -6 -3 -17 4 -24 15 -11 18 -11 20 3 15 17 -7 22
13 7 29 -5 5 -21 41 -36 79 -16 39 -36 81 -47 94 -18 24 -26 91 -10 91 18 0
53 -79 46 -104 -4 -15 0 -33 10 -47 15 -22 15 -20 10 32 -3 30 -9 66 -14 81
-7 21 -6 26 6 21 25 -9 -1 81 -52 180 -16 33 -18 51 -4 42 17 -10 11 1 -20 40
-16 21 -30 42 -30 48 0 17 31 -15 71 -75z m-2356 42 c-10 -11 -20 -18 -23 -15
-7 6 18 35 31 35 5 0 2 -9 -8 -20z m-555 7 c0 -2 -13 -16 -30 -32 -36 -35 -40
-26 -5 10 24 23 35 30 35 22z m-50 -11 c0 -2 -8 -10 -17 -17 -16 -13 -17 -12
-4 4 13 16 21 21 21 13z m2630 -50 c0 -3 -4 -8 -10 -11 -5 -3 -10 -1 -10 4 0
6 5 11 10 11 6 0 10 -2 10 -4z m159 -13 c-7 -10 -14 -20 -16 -22 -1 -1 -7 0
-13 4 -14 9 6 35 27 35 13 0 13 -3 2 -17z m46 -20 c-5 -26 -1 -47 12 -75 19
-40 33 -49 33 -21 0 9 3 14 6 10 3 -3 0 -28 -7 -55 -10 -43 -14 -48 -26 -36
-8 8 -12 18 -8 24 3 5 -1 22 -9 37 l-15 28 -1 -35 c-1 -19 -4 -28 -7 -20 -3 8
-14 27 -24 42 -11 14 -19 39 -18 55 0 18 3 23 7 13 11 -24 31 -22 24 2 -3 13
1 24 12 30 9 5 16 16 16 23 0 8 3 15 6 15 3 0 3 -17 -1 -37z m-2569 2 c-25
-19 -41 -19 -24 0 7 8 20 14 28 14 11 0 10 -3 -4 -14z m2225 -25 c22 -22 36
-40 31 -40 -4 0 -26 18 -47 40 -21 22 -36 40 -31 40 4 0 25 -18 47 -40z m146
8 c-3 -7 -5 -2 -5 12 0 14 2 19 5 13 2 -7 2 -19 0 -25z m-2227 18 c0 -2 -8
-10 -17 -17 -16 -13 -17 -12 -4 4 13 16 21 21 21 13z m175 -6 c-3 -5 -11 -10
-16 -10 -6 0 -7 5 -4 10 3 6 11 10 16 10 6 0 7 -4 4 -10z m591 -36 c-4 -14 -9
-24 -12 -21 -3 2 -2 17 2 31 3 15 9 25 11 22 3 -3 2 -17 -1 -32z m-216 16 c0
-5 -4 -10 -10 -10 -5 0 -10 5 -10 10 0 6 5 10 10 10 6 0 10 -4 10 -10z m1716
-51 c3 -24 10 -51 15 -62 6 -10 8 -21 5 -24 -3 -3 -12 10 -21 28 l-15 34 5
-35 c5 -32 4 -34 -11 -18 -10 9 -19 39 -22 70 -5 48 -4 52 11 39 15 -12 17
-11 17 4 0 33 11 8 16 -36z m-2437 4 c-12 -21 -30 -48 -41 -59 -15 -17 -16
-23 -6 -26 10 -4 11 -8 1 -20 -7 -8 -10 -18 -6 -22 10 -10 -47 -65 -62 -60 -7
3 -19 -3 -26 -13 -8 -10 -21 -23 -29 -30 -14 -10 -15 -7 -12 25 5 37 28 82 42
82 5 0 2 -14 -7 -31 -8 -16 -13 -32 -11 -34 8 -8 88 106 88 125 0 16 73 99 87
100 2 0 -7 -17 -18 -37z m2491 -4 c0 -11 9 -37 19 -57 11 -21 22 -56 25 -77 6
-36 5 -38 -5 -15 -7 14 -20 41 -29 60 -22 46 -37 125 -21 116 6 -4 11 -16 11
-27z m-2585 -34 c-38 -31 -49 -21 -11 11 15 14 31 22 35 19 3 -4 -7 -17 -24
-30z m2419 9 c3 -8 2 -12 -4 -9 -6 3 -10 10 -10 16 0 14 7 11 14 -7z m496 -6
c0 -16 -3 -19 -11 -11 -6 6 -8 16 -5 22 11 17 16 13 16 -11z m-1884 -25 c-11
-11 -19 6 -11 24 8 17 8 17 12 0 3 -10 2 -21 -1 -24z m-1138 12 c-31 -37 -41
-46 -46 -40 -6 6 38 55 50 55 5 0 3 -7 -4 -15z m-228 -9 c0 -2 -8 -10 -17 -17
-16 -13 -17 -12 -4 4 13 16 21 21 21 13z m238 -27 c-10 -5 -18 -15 -18 -20 0
-15 -30 -43 -37 -35 -8 8 47 66 61 66 6 0 3 -5 -6 -11z m2853 -25 l-8 -29 -5
27 c-3 16 0 29 6 31 16 6 16 4 7 -29z m-2659 -6 c-7 -7 -12 -8 -12 -2 0 14 12
26 19 19 2 -3 -1 -11 -7 -17z m978 1 c0 -6 -4 -7 -10 -4 -5 3 -10 11 -10 16 0
6 5 7 10 4 6 -3 10 -11 10 -16z m-1200 -43 c0 -2 -7 -9 -15 -16 -13 -11 -14
-10 -9 4 5 14 24 23 24 12z m-145 -55 c-15 -22 -24 -44 -21 -50 9 -14 -4 -41
-20 -41 -8 0 -14 6 -14 13 0 16 71 130 77 123 2 -2 -8 -22 -22 -45z m520 9
c-10 -11 -20 -18 -23 -15 -3 3 3 14 13 25 10 11 20 18 23 15 3 -3 -3 -14 -13
-25z m-485 3 c0 -5 -5 -15 -10 -23 -8 -12 -10 -11 -10 8 0 12 5 22 10 22 6 0
10 -3 10 -7z m3015 -13 c3 -5 1 -10 -4 -10 -6 0 -11 5 -11 10 0 6 2 10 4 10 3
0 8 -4 11 -10z m40 -70 c18 -34 20 -70 4 -70 -7 0 -9 10 -7 25 3 14 -1 30 -8
36 -13 11 -20 39 -9 39 2 0 11 -13 20 -30z m-2925 -10 c-6 -12 -14 -20 -17
-17 -2 3 1 14 8 26 17 26 24 19 9 -9z m58 -40 c-18 -21 -35 -34 -37 -29 -4 12
47 69 61 69 5 0 -6 -18 -24 -40z m-304 -15 c-4 -8 -11 -15 -16 -15 -6 0 -5 6
2 15 7 8 14 15 16 15 2 0 1 -7 -2 -15z m396 -5 c-6 -11 -13 -20 -16 -20 -2 0
0 9 6 20 6 11 13 20 16 20 2 0 0 -9 -6 -20z m-160 6 c0 -3 -4 -8 -10 -11 -5
-3 -10 -1 -10 4 0 6 5 11 10 11 6 0 10 -2 10 -4z m70 -26 c0 -5 -5 -10 -11
-10 -5 0 -7 5 -4 10 3 6 8 10 11 10 2 0 4 -4 4 -10z m-380 -25 c0 -8 -4 -15
-10 -15 -5 0 -7 7 -4 15 4 8 8 15 10 15 2 0 4 -7 4 -15z m289 -7 c-9 -16 -14
-19 -17 -9 -2 7 2 17 9 22 20 13 21 11 8 -13z m-252 -50 c-3 -8 -6 -5 -6 6 -1
11 2 17 5 13 3 -3 4 -12 1 -19z m357 -17 c-20 -33 -37 -42 -27 -13 7 18 36 51
41 46 2 -1 -4 -16 -14 -33z m-405 -257 c-7 -13 -18 -24 -25 -24 -9 0 -6 11 9
34 24 36 37 29 16 -10z m-9 32 c0 -3 -4 -8 -10 -11 -5 -3 -10 -1 -10 4 0 6 5
11 10 11 6 0 10 -2 10 -4z"/>
<path d="M5481 6694 c0 -11 3 -14 6 -6 3 7 2 16 -1 19 -3 4 -6 -2 -5 -13z"/>
<path d="M5550 6558 c0 -9 5 -20 10 -23 13 -8 13 5 0 25 -8 13 -10 13 -10 -2z"/>
<path d="M5566 6505 c4 -8 8 -15 10 -15 2 0 4 7 4 15 0 8 -4 15 -10 15 -5 0
-7 -7 -4 -15z"/>
<path d="M2675 6689 c-11 -17 1 -21 15 -4 8 9 8 15 2 15 -6 0 -14 -5 -17 -11z"/>
<path d="M2530 7169 c0 -5 5 -7 10 -4 6 3 10 8 10 11 0 2 -4 4 -10 4 -5 0 -10
-5 -10 -11z"/>
<path d="M3336 6865 c-11 -8 -16 -18 -12 -22 3 -4 16 3 29 15 24 25 12 29 -17
7z"/>
<path d="M3415 6860 c-19 -8 -19 -9 3 -9 12 -1 22 4 22 9 0 6 -1 10 -2 9 -2 0
-12 -4 -23 -9z"/>
<path d="M3360 6835 c-17 -21 -9 -27 13 -10 10 7 14 16 9 19 -5 3 -15 -1 -22
-9z"/>
<path d="M3265 6800 c-3 -6 1 -7 9 -4 18 7 21 14 7 14 -6 0 -13 -4 -16 -10z"/>
<path d="M3275 6771 c-11 -5 -24 -7 -30 -5 -5 2 -19 -9 -30 -25 -14 -22 -23
-27 -32 -19 -9 7 -13 7 -13 0 0 -6 6 -12 13 -15 15 -5 57 13 57 25 0 4 4 8 9
8 5 0 7 -10 4 -22 -3 -13 -3 -21 0 -18 3 3 7 14 9 25 1 11 12 28 23 37 22 19
20 21 -10 9z"/>
<path d="M5668 6724 c-2 -11 -3 -50 -2 -87 2 -55 0 -67 -12 -63 -17 6 -19 -23
-4 -74 6 -20 6 -36 1 -38 -14 -5 9 -67 30 -80 17 -11 19 -9 19 19 0 16 4 28 9
25 5 -4 12 0 14 6 3 8 6 6 6 -5 1 -10 5 -16 9 -13 5 3 7 20 5 38 -2 18 -5 62
-7 98 -4 75 -21 136 -46 169 -16 22 -17 22 -22 5z"/>
<path d="M3140 6720 c-12 -7 -12 -10 -1 -10 7 0 11 -6 8 -15 -8 -20 8 -28 23
-10 10 12 9 16 -4 21 -9 3 -13 10 -10 15 7 11 3 11 -16 -1z"/>
<path d="M3212 6694 c-14 -16 -5 -18 17 -5 7 5 9 11 5 14 -5 3 -15 -1 -22 -9z"/>
<path d="M3095 6670 c-3 -5 1 -10 9 -10 8 0 18 5 21 10 3 6 -1 10 -9 10 -8 0
-18 -4 -21 -10z"/>
<path d="M3025 6644 c-38 -19 -42 -24 -23 -24 9 0 26 9 39 20 29 24 24 25 -16
4z"/>
<path d="M2837 6528 c-16 -12 -15 -13 8 -13 14 0 25 6 25 13 0 6 -4 12 -8 12
-5 0 -16 -6 -25 -12z"/>
<path d="M2781 6456 c-23 -37 -25 -46 -12 -46 5 0 13 10 17 23 3 12 13 30 22
40 8 9 10 17 4 17 -6 0 -20 -15 -31 -34z"/>
<path d="M2361 6354 c0 -11 3 -14 6 -6 3 7 2 16 -1 19 -3 4 -6 -2 -5 -13z"/>
<path d="M5716 6354 c-11 -28 -6 -57 12 -78 13 -16 14 -18 1 -8 -13 10 -19 9
-30 -5 -9 -11 -10 -14 -1 -9 8 5 12 0 12 -13 0 -25 49 -83 63 -74 5 3 3 10 -7
15 -17 10 -22 38 -6 38 6 0 6 9 0 26 -14 36 -13 51 2 36 27 -27 28 -9 0 26
-16 20 -27 43 -25 50 7 18 -14 15 -21 -4z m30 -131 c-7 -7 -26 7 -26 19 0 6 6
6 15 -2 9 -7 13 -15 11 -17z"/>
<path d="M5662 6323 c9 -35 28 -68 28 -49 0 20 -24 86 -31 86 -4 0 -3 -17 3
-37z"/>
<path d="M2706 6275 c-9 -14 -13 -25 -9 -25 10 0 36 40 30 46 -2 3 -12 -7 -21
-21z"/>
<path d="M2640 6189 c0 -11 5 -17 10 -14 6 3 10 13 10 21 0 8 -4 14 -10 14 -5
0 -10 -9 -10 -21z"/>
<path d="M2365 6017 c-4 -10 -5 -21 -1 -24 10 -10 18 4 13 24 -4 17 -4 17 -12
0z"/>
<path d="M2436 6003 c-4 -18 -12 -35 -17 -38 -5 -4 -9 -16 -8 -28 0 -14 7 -5
20 27 11 27 18 54 16 60 -2 6 -7 -4 -11 -21z"/>
<path d="M5675 6010 c3 -5 8 -10 11 -10 2 0 4 5 4 10 0 6 -5 10 -11 10 -5 0
-7 -4 -4 -10z"/>
<path d="M2352 5931 c-14 -38 -11 -49 7 -27 7 8 11 25 9 38 -3 20 -5 19 -16
-11z"/>
<path d="M5716 5794 c-8 -22 -8 -24 6 -24 6 0 8 3 5 7 -4 3 -2 12 4 20 7 8 8
13 1 13 -5 0 -13 -7 -16 -16z"/>
<path d="M5760 5608 c0 -8 5 -19 12 -26 17 -17 0 -28 -22 -14 -26 16 -26 0 0
-23 11 -10 20 -13 20 -7 0 7 5 12 11 12 7 0 5 -10 -5 -25 -20 -30 -20 -35 0
-35 14 0 14 -2 3 -16 -18 -22 -20 -114 -2 -114 17 0 16 -15 -2 -30 -17 -14
-20 -50 -5 -50 14 0 13 -33 -2 -48 -8 -8 -8 -15 -1 -24 14 -18 41 -210 47
-332 4 -75 1 -108 -11 -138 -11 -28 -18 -36 -24 -26 -5 8 -6 -3 -4 -26 3 -22
8 -42 10 -45 9 -8 28 18 31 41 1 13 9 68 17 123 22 143 40 360 42 505 0 69 4
136 9 150 l8 25 -21 -24 c-15 -17 -21 -19 -21 -8 0 8 -6 17 -12 20 -10 3 -10
7 1 20 10 13 10 17 1 17 -7 0 -10 8 -7 20 7 28 -7 25 -23 -5 -13 -25 -30 -34
-30 -15 0 5 6 15 13 22 15 13 11 48 -4 48 -5 0 -9 6 -9 14 0 8 -4 18 -10 21
-5 3 -10 0 -10 -7z"/>
<path d="M5260 5580 c0 -7 -7 -9 -17 -6 -9 4 -19 2 -23 -4 -3 -6 -30 -11 -59
-11 -50 -2 -51 -2 -35 -20 19 -21 6 -26 -15 -6 -9 7 -15 8 -17 2 -3 -6 -31
-10 -65 -9 -41 1 -65 -4 -75 -14 -8 -8 -24 -12 -34 -9 -11 3 -20 1 -20 -4 0
-5 -16 -9 -35 -9 -19 0 -51 -9 -71 -21 -36 -20 -102 -28 -123 -15 -19 12 -71
-26 -71 -51 0 -16 -8 -27 -26 -33 -36 -14 -75 -42 -52 -38 9 2 17 -1 17 -7 0
-5 -13 -8 -29 -7 -17 2 -30 -1 -30 -7 0 -6 5 -11 10 -11 6 0 1 -9 -9 -19 -13
-13 -27 -18 -43 -14 -19 5 -21 3 -10 -8 6 -7 12 -22 12 -34 0 -11 9 -29 21
-39 17 -14 20 -23 13 -49 -12 -49 -11 -179 3 -202 6 -11 13 -31 15 -45 2 -14
11 -36 20 -50 9 -14 19 -34 22 -46 7 -23 78 -60 95 -50 6 4 11 1 11 -8 0 -8 6
-17 13 -19 8 -4 9 -8 1 -14 -6 -4 -14 -25 -18 -45 -5 -30 -4 -38 7 -38 8 0 17
9 20 20 3 11 0 20 -6 20 -8 0 -9 3 -1 8 6 4 13 15 17 25 7 20 27 23 27 5 0 -7
11 -18 25 -24 l24 -12 -6 47 c-4 25 -7 57 -8 71 0 16 -17 43 -48 75 -50 52
-63 80 -53 113 7 22 36 32 114 38 30 2 58 6 63 10 14 8 -1 26 -18 20 -18 -7
-59 29 -44 39 6 3 16 3 21 0 6 -3 10 1 10 9 0 13 38 43 44 34 53 -88 68 -98
149 -98 48 0 63 -14 27 -25 -11 -3 -20 -11 -20 -17 0 -6 6 -6 15 2 12 10 18
10 31 -1 9 -7 18 -9 22 -3 11 14 59 16 83 3 19 -10 21 -9 15 6 -5 14 -2 16 13
12 11 -3 22 1 25 9 3 7 23 17 46 20 23 4 40 12 40 20 0 26 20 24 48 -4 31 -32
62 -47 62 -31 0 6 7 9 15 5 9 -3 15 0 15 9 0 9 14 15 43 17 38 3 42 5 39 27
-1 16 2 22 11 18 8 -3 20 -1 28 4 12 7 12 9 0 9 -11 0 -11 3 -1 14 6 8 18 12
25 10 10 -4 13 3 13 26 -1 18 5 36 13 41 11 7 12 12 2 28 -10 15 -10 21 0 24
9 4 9 7 0 18 -7 7 -13 22 -13 34 0 11 -9 35 -20 53 -28 45 -24 63 5 29 28 -32
29 -32 14 12 -6 17 -16 31 -21 31 -6 0 -8 11 -6 25 3 14 1 25 -3 25 -5 0 -19
11 -31 25 -35 40 -163 107 -143 75 4 -6 -10 -10 -34 -10 -27 0 -40 4 -38 12 1
6 -6 14 -15 16 -10 2 -18 -2 -18 -8z m-300 -432 c0 -12 -28 -9 -36 3 -3 6 0
15 7 20 13 7 28 -5 29 -23z m204 -42 c-3 -14 -18 -32 -33 -39 -15 -7 -25 -20
-23 -29 2 -12 -3 -15 -18 -11 -11 3 -20 8 -20 12 0 14 32 51 40 46 5 -3 12 5
16 17 16 54 52 58 38 4z m-529 -91 c-17 -33 -35 -46 -35 -26 0 5 -3 16 -6 24
-4 10 4 21 23 30 37 20 41 14 18 -28z m509 14 c-3 -5 -10 -7 -15 -3 -5 3 -7
10 -3 15 3 5 10 7 15 3 5 -3 7 -10 3 -15z"/>
<path d="M5730 5533 c0 -4 5 -15 10 -23 8 -13 10 -13 10 2 0 9 -4 20 -10 23
-5 3 -10 3 -10 -2z"/>
<path d="M3375 5399 c-103 -17 -137 -20 -131 -11 4 6 -9 7 -35 1 -22 -5 -45
-7 -50 -3 -5 3 -22 -2 -37 -12 -15 -10 -31 -19 -37 -19 -27 -3 -72 -28 -87
-49 -9 -13 -19 -42 -21 -66 -3 -33 -9 -45 -25 -51 -22 -8 -31 -29 -12 -29 6 0
10 5 10 12 0 6 7 3 16 -8 13 -16 15 -16 10 -1 -4 12 0 17 14 17 11 0 20 7 20
16 0 8 4 13 10 9 5 -3 44 -7 86 -10 66 -3 74 -2 58 10 -11 7 -15 17 -10 22 5
4 10 4 12 -2 6 -15 135 -9 145 7 5 8 26 12 56 11 68 -2 80 -3 151 -20 77 -19
70 -32 -25 -45 -133 -17 -148 -20 -160 -30 -18 -15 -114 -20 -130 -7 -7 7 -16
9 -20 5 -3 -3 -1 -6 5 -6 24 0 11 -19 -15 -22 -23 -2 -27 -7 -25 -25 3 -22
-13 -33 -20 -14 -2 5 -14 5 -28 -1 -15 -5 -20 -12 -14 -16 16 -10 28 -99 14
-107 -5 -3 -10 -10 -10 -16 0 -9 18 -8 130 11 202 34 192 31 175 49 -18 21
-19 43 -3 59 23 23 45 14 52 -20 4 -18 17 -45 29 -61 21 -25 29 -27 102 -29
74 -1 80 0 102 26 12 15 28 47 34 72 6 24 14 44 18 44 12 -1 45 -30 63 -57 10
-16 18 -22 18 -15 0 6 7 12 15 12 28 0 15 -18 -20 -30 -39 -13 -41 -17 -21
-43 8 -10 12 -27 9 -37 -3 -11 0 -20 6 -20 10 0 16 26 12 56 -1 6 20 14 46 18
69 9 80 19 54 45 -11 11 -21 23 -21 25 0 3 21 2 46 0 66 -8 101 9 106 52 2 19
0 34 -4 34 -17 0 -7 22 12 27 25 7 26 25 0 48 -11 10 -17 21 -15 25 3 4 7 23
9 43 4 27 -1 41 -22 66 -26 31 -82 52 -82 31 0 -5 -4 -10 -10 -10 -5 0 -10 6
-10 13 0 16 -102 20 -112 4 -6 -9 -10 -8 -17 2 -7 10 -18 11 -55 3 -25 -5 -46
-6 -46 -2 0 4 -21 7 -47 6 -85 -1 -183 7 -178 14 5 8 -38 8 -90 -1z m-120
-149 c3 -5 1 -10 -4 -10 -6 0 -11 5 -11 10 0 6 2 10 4 10 3 0 8 -4 11 -10z
m319 -166 c8 -22 8 -24 -8 -24 -18 0 -29 16 -21 30 9 15 22 12 29 -6z m306
-73 c0 -12 -29 -35 -36 -28 -11 10 5 37 21 37 8 0 15 -4 15 -9z"/>
<path d="M2940 5210 c-13 -8 -12 -10 3 -10 9 0 17 5 17 10 0 12 -1 12 -20 0z"/>
<path d="M2401 5179 c0 -13 -1 -33 -3 -43 -2 -10 2 -21 9 -23 8 -3 11 8 8 37
-4 46 -15 68 -14 29z"/>
<path d="M2169 5169 c-10 -20 -5 -121 8 -141 5 -10 69 16 88 36 24 24 17 56
-19 92 -39 39 -61 43 -77 13z"/>
<path d="M3166 5171 c5 -5 25 -12 44 -15 l35 -6 -30 15 c-34 16 -64 20 -49 6z"/>
<path d="M2418 5077 c4 -14 7 -16 13 -5 12 19 11 25 -5 25 -8 0 -11 -8 -8 -20z"/>
<path d="M2446 5074 c-3 -9 -2 -12 5 -9 6 4 7 -3 3 -19 -3 -15 -2 -26 4 -26
14 0 22 24 15 49 -6 25 -18 27 -27 5z"/>
<path d="M2470 4996 c0 -7 9 -25 20 -39 11 -14 20 -32 20 -40 0 -9 5 -19 10
-22 6 -4 10 8 10 29 0 19 -5 38 -11 41 -6 4 -8 13 -5 21 3 8 1 14 -4 14 -6 0
-10 -8 -11 -17 0 -14 -2 -13 -9 5 -10 25 -20 29 -20 8z"/>
<path d="M5771 4886 c-1 -72 2 -127 8 -130 15 -10 24 58 17 132 -3 37 -6 79
-6 95 0 15 -4 27 -9 27 -5 0 -10 -56 -10 -124z"/>
<path d="M5281 4987 c-6 -8 -8 -17 -5 -20 4 -3 -2 -5 -12 -5 -32 3 -75 -12
-69 -22 4 -6 11 -7 17 -4 6 4 21 8 32 10 12 2 38 8 60 13 21 5 45 7 54 4 10
-4 13 -2 8 5 -4 7 -14 12 -22 12 -8 0 -14 5 -14 10 0 15 -36 12 -49 -3z"/>
<path d="M3493 4932 c-13 -2 -23 -8 -23 -13 0 -9 37 -3 49 7 8 7 -4 10 -26 6z"/>
<path d="M5060 4931 c0 -6 5 -13 10 -16 6 -3 10 1 10 9 0 9 -4 16 -10 16 -5 0
-10 -4 -10 -9z"/>
<path d="M5096 4932 c-2 -4 1 -15 8 -25 12 -16 14 -16 31 3 10 11 22 17 26 14
5 -3 9 0 9 5 0 12 -66 15 -74 3z"/>
<path d="M5071 4873 c-7 -8 -11 -16 -8 -19 2 -2 10 2 17 11 17 20 9 27 -9 8z"/>
<path d="M5020 4870 c0 -5 5 -10 11 -10 5 0 7 5 4 10 -3 6 -8 10 -11 10 -2 0
-4 -4 -4 -10z"/>
<path d="M2407 4822 c-16 -17 -15 -20 12 -46 25 -24 32 -26 50 -17 26 14 26
22 0 55 -24 31 -40 33 -62 8z"/>
<path d="M4572 4697 c-13 -15 -1 -39 13 -29 12 8 16 42 5 42 -4 0 -12 -6 -18
-13z"/>
<path d="M4762 4668 c2 -6 10 -14 16 -16 7 -2 10 2 6 12 -7 18 -28 22 -22 4z"/>
<path d="M4681 4646 c2 -2 15 -9 29 -15 24 -11 24 -11 6 3 -16 13 -49 24 -35
12z"/>
<path d="M4787 4619 c7 -7 15 -10 18 -7 3 3 -2 9 -12 12 -14 6 -15 5 -6 -5z"/>
<path d="M4700 4514 c0 -14 3 -14 15 -4 8 7 15 14 15 16 0 2 -7 4 -15 4 -8 0
-15 -7 -15 -16z"/>
<path d="M5575 4510 c3 -5 11 -10 16 -10 6 0 7 5 4 10 -3 6 -11 10 -16 10 -6
0 -7 -4 -4 -10z"/>
<path d="M4710 4474 c0 -8 5 -12 10 -9 6 3 10 10 10 16 0 5 -4 9 -10 9 -5 0
-10 -7 -10 -16z"/>
<path d="M5581 4462 c-7 -13 -6 -23 1 -30 16 -16 31 -15 21 1 -4 6 -6 20 -5
30 4 22 -5 22 -17 -1z"/>
<path d="M4697 4443 c-2 -4 -2 -17 0 -28 3 -11 5 -29 6 -40 1 -12 19 -38 40
-59 20 -22 37 -45 37 -51 0 -7 3 -25 6 -41 4 -21 0 -36 -15 -53 -19 -22 -24
-23 -48 -12 -19 9 -29 9 -31 2 -2 -6 -9 -11 -15 -11 -7 0 -18 -9 -24 -19 -7
-11 -28 -24 -47 -31 -23 -7 -36 -18 -36 -29 0 -10 -11 -23 -25 -29 -14 -6 -25
-20 -25 -30 0 -11 -9 -27 -20 -37 -23 -21 -153 -50 -158 -36 -2 6 -25 13 -52
17 -28 4 -51 12 -54 21 -7 19 -144 83 -177 83 -31 0 -83 16 -121 36 -41 22
-34 2 22 -62 28 -31 50 -62 50 -68 0 -7 9 -19 19 -28 11 -9 23 -33 27 -52 3
-20 10 -33 15 -31 5 3 11 -6 15 -20 6 -25 28 -34 39 -15 3 6 13 10 21 10 8 0
13 -4 9 -9 -3 -6 4 -10 15 -10 11 -1 30 -1 42 -1 26 -1 58 -27 58 -47 0 -15
-40 -34 -53 -26 -5 3 -4 -4 2 -16 10 -18 9 -20 -6 -15 -15 5 -16 4 -3 -5 8 -6
15 -16 15 -23 0 -7 8 -12 18 -10 10 2 18 -4 19 -15 1 -10 2 -25 4 -33 1 -8 2
-20 3 -27 1 -6 10 -9 21 -6 11 3 17 9 14 14 -3 5 0 17 5 26 6 10 11 14 11 8 0
-5 7 1 15 15 11 20 14 21 15 7 0 -15 4 -14 24 8 23 24 25 25 30 7 4 -11 3 -28
-1 -38 -6 -17 -5 -17 10 -5 9 7 17 22 17 32 0 10 4 20 9 23 4 3 6 -5 4 -18 -4
-18 1 -25 18 -29 13 -4 26 -1 30 5 4 6 11 4 18 -8 6 -11 11 -14 11 -7 0 6 -7
18 -15 26 -13 13 -13 16 0 21 8 3 17 1 20 -4 4 -6 14 -10 25 -10 18 0 35 -26
31 -45 -1 -5 6 -1 17 8 34 31 33 2 -1 -35 -68 -74 -193 -116 -219 -74 -5 7 -8
5 -8 -7 0 -16 -2 -16 -28 -3 -18 9 -33 11 -42 6 -9 -6 -20 -4 -30 4 -19 17
-85 27 -97 15 -5 -5 -42 -9 -83 -10 -41 -1 -86 -6 -99 -11 -50 -19 -149 -25
-161 -10 -14 18 -100 2 -100 -19 0 -5 -11 -4 -25 1 -15 6 -26 6 -30 0 -4 -6
-1 -10 6 -10 8 0 6 -6 -4 -18 -10 -10 -14 -21 -11 -25 7 -7 -20 -37 -34 -37
-5 0 -15 -6 -21 -14 -9 -11 -9 -15 1 -19 10 -4 10 -8 -2 -16 -13 -10 -13 -11
0 -11 12 0 12 -2 1 -9 -8 -5 -9 -11 -3 -15 6 -3 18 4 27 16 8 13 19 22 23 22
4 -1 12 0 17 1 11 4 79 15 108 19 10 1 22 8 27 16 9 15 117 7 134 -10 6 -6 18
-10 28 -10 11 0 35 -8 56 -19 20 -10 42 -16 49 -14 6 2 14 0 17 -6 3 -5 15 -7
26 -4 11 3 26 0 34 -6 10 -9 15 -8 20 4 3 10 -1 15 -13 15 -10 0 -22 8 -26 18
-6 16 -7 16 -16 0 -12 -22 -29 -23 -29 -3 0 8 -3 14 -7 14 -20 -3 -23 3 -12
22 7 13 14 18 18 11 3 -6 18 -12 31 -14 14 -2 30 -7 37 -11 6 -4 18 -4 27 -1
23 9 76 -15 77 -35 0 -10 2 -11 6 -3 8 20 23 14 23 -10 0 -18 2 -20 10 -8 8
12 10 12 16 -4 5 -14 9 -15 15 -4 6 9 9 9 9 1 0 -8 11 -11 30 -8 16 2 32 -1
36 -6 3 -5 10 -7 15 -4 11 8 12 -15 0 -34 -7 -11 -11 -10 -20 5 -9 17 -10 17
-11 2 0 -11 -5 -15 -15 -11 -20 7 -105 -16 -126 -34 -8 -7 -22 -13 -31 -13 -8
0 -26 -10 -40 -23 -13 -12 -35 -23 -47 -24 -13 -1 -26 -4 -28 -7 -10 -9 26
-54 57 -72 16 -10 30 -24 30 -31 0 -8 12 -11 38 -8 20 2 32 1 25 -1 -7 -3 -9
-12 -6 -20 5 -13 8 -13 29 1 30 19 102 27 107 12 3 -9 10 -7 23 3 17 14 18 14
6 -2 -8 -10 -9 -18 -3 -22 6 -4 8 -13 4 -21 -6 -17 12 -21 22 -5 11 18 26 11
17 -7 -10 -20 -5 -43 10 -43 5 0 6 9 3 20 -4 11 -2 20 4 20 6 0 11 7 11 15 0
8 6 15 14 15 9 0 12 -9 9 -27 -3 -16 -1 -23 4 -17 4 6 16 13 26 17 10 4 16 11
12 16 -3 5 4 12 15 16 11 3 20 10 20 14 0 4 10 7 23 6 12 -1 32 7 45 18 13 12
22 16 22 8 0 -7 5 -9 11 -5 8 4 9 -1 5 -17 -7 -23 -6 -23 8 -5 8 10 19 15 24
12 6 -3 12 1 16 9 8 21 46 19 46 -2 1 -17 1 -17 11 0 7 11 22 17 49 17 33 0
37 3 33 20 -3 11 -9 20 -14 20 -5 0 -6 7 -3 15 9 22 34 19 34 -4 0 -22 30 -37
41 -20 11 18 51 -24 43 -45 -4 -10 1 -25 11 -36 10 -11 13 -20 7 -20 -6 0 -9
-13 -7 -29 3 -22 -1 -31 -15 -36 -10 -3 -24 -13 -32 -22 -11 -15 -11 -16 5
-10 11 4 24 4 30 0 7 -4 17 -8 22 -8 6 0 9 -11 7 -24 -1 -13 3 -30 10 -38 10
-13 7 -14 -17 -12 -17 2 -35 0 -42 -4 -16 -10 -43 2 -43 20 0 8 -5 11 -11 7
-6 -3 -9 -14 -6 -23 4 -18 -17 -44 -27 -34 -13 13 -5 -14 10 -36 12 -17 13
-26 5 -34 -8 -8 -11 -8 -11 1 0 9 -8 7 -25 -5 -15 -11 -22 -24 -19 -35 3 -10
1 -18 -5 -18 -6 0 -11 -7 -11 -15 0 -8 -5 -15 -11 -15 -6 0 -9 7 -6 14 4 10 1
13 -9 9 -8 -3 -13 -12 -10 -19 3 -8 0 -11 -10 -7 -7 3 -14 0 -14 -7 0 -6 -4
-8 -10 -5 -5 3 -21 -6 -35 -22 -13 -15 -25 -23 -25 -18 0 6 -9 11 -20 11 -13
0 -19 -5 -15 -13 3 -10 0 -11 -14 -3 -14 7 -21 6 -25 -3 -2 -6 -3 4 0 23 4 30
3 32 -5 13 -12 -26 -27 -32 -17 -7 3 8 2 12 -4 9 -5 -3 -20 -8 -32 -10 -12 -3
-25 -11 -30 -18 -12 -22 -60 -9 -53 13 3 10 0 20 -8 23 -17 7 -32 -3 -40 -26
-4 -11 -16 -21 -27 -24 -11 -3 -17 -9 -15 -14 3 -4 13 -6 23 -3 11 4 8 -2 -8
-15 -20 -16 -33 -19 -64 -14 -22 3 -37 2 -33 -3 3 -5 -6 -10 -20 -10 -26 -2
-76 -42 -68 -55 3 -4 1 -10 -5 -14 -5 -3 -10 1 -10 9 0 9 -8 16 -19 16 -11 0
-21 5 -23 12 -3 7 -9 8 -19 3 -18 -12 -39 -15 -39 -6 0 4 -7 16 -15 27 -14 19
-14 19 -30 -3 -21 -30 -51 -29 -71 2 -10 16 -26 25 -41 25 -17 0 -27 7 -30 21
-4 15 -11 19 -27 15 -22 -5 -60 16 -49 27 3 4 -1 7 -11 7 -21 0 -41 19 -50 48
-4 12 -17 27 -28 33 -15 8 -19 8 -14 0 4 -6 4 -16 1 -21 -7 -12 -45 32 -63 73
-6 15 -17 27 -24 27 -8 1 -5 7 6 15 20 15 20 15 0 15 -25 0 -44 18 -44 43 0
16 -5 18 -27 13 -16 -4 -23 -3 -17 1 8 5 8 16 3 32 -8 19 -12 21 -24 11 -8 -7
-15 -8 -15 -3 0 5 -7 18 -16 29 -15 19 -15 19 -9 -2 6 -24 -18 -50 -36 -39 -6
4 -3 -5 7 -20 18 -27 18 -28 -1 -18 -11 6 -26 8 -33 6 -7 -3 -19 0 -26 6 -7 6
-22 9 -32 5 -18 -5 -18 -5 0 10 17 14 18 16 3 16 -9 0 -44 27 -76 60 -33 33
-65 60 -71 60 -6 0 -10 6 -7 13 2 6 -11 31 -30 55 -19 23 -30 42 -24 42 6 0 2
9 -9 20 -11 11 -23 19 -28 19 -21 -4 -31 4 -42 34 -7 17 -12 37 -11 43 0 6
-10 16 -24 22 -14 6 -25 18 -25 26 0 18 -27 28 -34 13 -3 -7 -3 2 0 20 4 25 1
34 -15 42 -31 17 -41 13 -41 -14 0 -14 5 -25 10 -25 6 0 10 -6 10 -14 0 -8 6
-21 14 -29 8 -8 13 -27 11 -43 -3 -30 22 -94 37 -94 5 0 7 -4 3 -9 -3 -6 2
-14 11 -19 9 -5 18 -20 19 -33 1 -13 3 -28 4 -33 0 -4 7 -6 15 -3 8 3 17 -1
20 -9 3 -8 1 -12 -4 -9 -6 3 -7 -1 -4 -9 3 -9 12 -16 19 -16 7 0 18 -13 24
-30 5 -16 15 -30 21 -30 6 0 8 -5 5 -11 -8 -11 -9 -9 100 -122 63 -64 74 -81
64 -93 -9 -12 -8 -14 8 -12 19 3 112 -94 141 -148 7 -13 19 -24 25 -24 7 0 24
-12 38 -27 56 -63 126 -113 154 -113 9 0 14 -4 10 -9 -7 -13 43 -51 67 -51 10
0 21 -6 24 -14 3 -8 12 -12 20 -9 8 3 14 1 14 -4 0 -10 52 -38 90 -49 14 -4
31 -15 38 -25 7 -11 22 -19 32 -19 11 0 38 -10 60 -21 34 -18 39 -24 28 -36
-10 -12 -8 -18 12 -34 14 -10 32 -18 40 -18 11 1 10 3 -2 6 -10 2 -18 8 -18
13 0 5 -3 15 -6 24 -3 9 -1 16 5 16 6 0 10 -4 9 -10 -2 -5 10 -20 25 -32 20
-17 26 -28 21 -41 -3 -10 -13 -16 -20 -13 -8 3 -14 2 -14 -3 0 -11 25 -32 31
-27 2 2 5 -6 5 -19 1 -16 -3 -22 -12 -18 -8 3 -12 -2 -11 -16 1 -22 29 -39 35
-22 2 6 14 8 27 5 27 -7 42 11 25 31 -15 18 -6 18 40 -1 19 -8 25 -12 13 -10
-13 2 -23 -1 -23 -6 0 -7 14 -8 35 -5 19 3 37 1 41 -5 3 -5 14 -8 24 -5 27 7
33 -20 10 -43 -11 -11 -20 -24 -20 -30 0 -5 -7 -10 -15 -10 -8 0 -15 -4 -15
-10 0 -15 11 -12 33 8 19 16 20 16 14 -1 -4 -10 -2 -17 5 -17 7 0 2 -9 -9 -19
-13 -12 -29 -18 -42 -14 -13 3 -21 1 -21 -7 0 -9 -11 -11 -35 -7 -33 5 -49 -6
-22 -16 6 -2 8 -8 4 -13 -4 -5 -11 -4 -15 2 -13 20 -41 24 -50 7 -6 -10 -16
-14 -28 -10 -18 7 -18 6 0 -8 19 -14 19 -15 1 -35 -15 -17 -17 -25 -8 -39 9
-14 8 -22 -5 -35 -16 -16 -16 -18 1 -30 23 -17 22 -29 -2 -21 -11 3 -22 1 -26
-5 -3 -5 -1 -10 4 -10 6 0 11 -4 11 -8 0 -5 -15 -7 -32 -5 l-33 4 30 -14 c17
-8 36 -12 43 -9 6 2 12 -1 12 -7 0 -6 -13 -14 -30 -17 -44 -9 -36 -23 11 -21
36 2 42 -1 44 -20 1 -15 -3 -19 -13 -15 -8 3 -21 -3 -28 -13 -8 -10 -14 -14
-14 -7 0 7 -10 9 -30 6 -17 -4 -36 -1 -44 5 -10 8 -16 9 -21 1 -3 -5 -1 -10 4
-10 6 0 11 -7 11 -15 0 -11 -5 -12 -25 -5 -25 9 -30 5 -26 -26 1 -6 -12 -11
-29 -12 -16 0 -30 4 -30 9 0 5 -13 9 -30 9 -16 0 -30 4 -30 9 0 5 -10 13 -22
16 -13 4 -37 18 -55 31 -17 13 -41 24 -51 24 -11 0 -22 4 -24 9 -3 9 -57 40
-168 99 -30 16 -83 48 -117 71 -34 22 -64 41 -67 41 -10 0 -196 111 -285 170
-120 79 -331 288 -331 328 0 5 -12 18 -26 28 -52 39 -111 103 -157 173 -26 39
-47 73 -47 77 0 3 -13 24 -28 47 -16 23 -39 62 -53 87 -13 25 -50 89 -82 143
-94 155 -93 224 4 311 56 50 135 108 176 129 46 24 63 45 63 78 0 35 -11 36
-79 10 -27 -11 -73 -21 -103 -22 -29 -1 -82 -13 -118 -27 -36 -13 -76 -29 -90
-34 -14 -4 -54 -38 -90 -73 -59 -59 -142 -115 -170 -115 -6 0 -49 -18 -96 -40
-47 -22 -87 -40 -89 -40 -4 0 -180 -95 -237 -128 -62 -36 -168 -103 -263 -167
-49 -34 -115 -72 -145 -85 -134 -56 -395 -177 -571 -265 -199 -100 -292 -154
-446 -264 l-93 -66 0 -977 0 -978 4160 0 4160 0 0 729 0 730 -77 108 c-149
210 -282 388 -315 422 -57 58 -151 124 -363 254 -11 6 -36 24 -55 39 -62 46
-192 122 -295 173 -121 59 -98 50 -330 128 -171 58 -291 103 -382 143 -17 8
-33 14 -36 14 -3 0 -99 40 -214 88 -114 49 -233 97 -263 107 -121 40 -191 69
-325 135 -77 38 -152 72 -168 76 -30 7 -45 23 -30 33 6 3 14 17 18 31 4 14 20
52 35 85 42 92 62 153 54 166 -5 8 -3 9 6 4 10 -6 12 -4 7 8 -3 10 -3 17 2 17
5 0 11 9 14 20 3 11 2 18 -2 16 -9 -6 -6 63 3 86 4 9 5 22 1 28 -3 5 -1 10 4
10 16 0 13 21 -4 40 -28 31 -24 133 5 115 6 -3 7 1 4 9 -4 11 -11 13 -23 6
-15 -7 -20 -1 -33 41 -18 54 -11 67 10 19 8 -16 17 -30 20 -30 4 0 7 27 7 60
0 41 -4 60 -12 60 -7 0 -13 4 -13 10 0 5 7 7 15 4 10 -4 15 0 15 11 0 9 4 14
9 10 5 -3 12 -2 15 3 6 11 -29 64 -40 61 -5 -1 -11 6 -13 16 -3 17 -1 18 13 6
14 -11 16 -11 16 2 0 8 -7 17 -15 21 -8 3 -15 12 -15 21 0 22 -48 24 -62 2 -4
-6 -10 -8 -15 -4 -4 5 -1 12 6 16 11 7 10 13 -4 35 -17 26 -26 33 -24 19 4
-22 -3 -25 -16 -7 -8 11 -15 14 -15 7 0 -16 -30 -17 -30 -2 0 5 5 7 10 4 6 -3
10 -1 10 4 0 12 -11 14 -34 5 -8 -3 -12 -12 -9 -20 7 -18 -21 -19 -36 -1 -8
11 -5 19 14 37 14 13 25 30 25 37 0 18 -69 -54 -80 -82 -4 -12 -2 -28 7 -42
13 -19 12 -23 -5 -32 -19 -10 -32 -6 -32 11 0 4 7 8 15 8 8 0 15 5 15 11 0 6
-6 9 -14 6 -7 -3 -18 -1 -23 4 -6 6 -9 1 -9 -13 1 -12 -3 -23 -9 -24 -5 0 -23
-6 -38 -12 -16 -7 -33 -12 -38 -12 -5 0 -9 -7 -9 -15 0 -8 -5 -15 -11 -15 -5
0 -8 -4 -4 -10 3 -5 13 -7 23 -4 9 4 4 -3 -13 -15 -25 -18 -27 -21 -10 -21 20
-1 20 -1 1 -12 -15 -8 -21 -8 -24 0 -7 22 -22 12 -22 -13 0 -29 -6 -31 -26
-10 -9 8 -26 15 -39 15 -18 0 -22 4 -18 19 5 21 65 39 71 21 2 -6 11 -2 19 9
8 12 11 26 8 31 -4 6 -3 9 2 8 4 -1 21 5 37 14 l30 16 -36 -2 c-20 0 -34 -4
-31 -8 2 -5 -6 -8 -19 -8 -13 0 -28 -4 -33 -9 -15 -14 -39 -17 -44 -6 -7 16
-29 35 -40 35 -6 0 -8 7 -5 15 4 9 0 15 -7 15 -11 0 -11 2 0 9 12 8 12 11 0
24 -8 8 -24 17 -34 21 -25 9 -92 95 -112 144 -9 23 -26 43 -46 53 -17 8 -34
24 -37 35 -5 19 -44 32 -53 17z m847 -314 c-4 -7 -7 -26 -6 -43 1 -22 -2 -26
-8 -16 -11 17 -13 54 -3 63 11 12 25 8 17 -4z m-487 -85 c-3 -3 -12 -4 -19 -1
-8 3 -5 6 6 6 11 1 17 -2 13 -5z m153 -54 c0 -5 -2 -10 -4 -10 -3 0 -8 5 -11
10 -3 6 -1 10 4 10 6 0 11 -4 11 -10z m-55 -50 c-3 -5 -10 -10 -16 -10 -5 0
-9 5 -9 10 0 6 7 10 16 10 8 0 12 -4 9 -10z m-1040 -90 c3 -5 -1 -10 -9 -10
-9 0 -16 5 -16 10 0 6 4 10 9 10 6 0 13 -4 16 -10z m185 -121 c0 -5 -4 -9 -10
-9 -5 0 -10 7 -10 16 0 8 5 12 10 9 6 -3 10 -10 10 -16z m160 11 c0 -5 -5 -10
-11 -10 -5 0 -7 5 -4 10 3 6 8 10 11 10 2 0 4 -4 4 -10z m916 -36 c3 -13 3
-41 -1 -61 -4 -25 -2 -39 7 -45 9 -7 6 -8 -9 -5 -16 3 -23 0 -23 -9 0 -8 6
-14 13 -14 7 -1 5 -6 -6 -14 -15 -12 -15 -15 -2 -26 22 -18 19 -32 -20 -90
-19 -29 -35 -56 -35 -61 0 -17 -56 -64 -80 -67 -13 -2 -30 -8 -37 -14 -10 -8
-13 -6 -13 6 0 10 9 16 23 17 15 1 17 3 6 6 -10 2 -19 13 -22 24 -3 11 -9 19
-14 18 -29 -5 -33 4 -5 16 31 14 39 34 33 83 -1 8 3 20 10 28 8 9 8 18 2 27
-7 8 -6 22 3 42 7 17 13 26 14 22 0 -5 7 -1 16 8 12 11 13 19 5 29 -14 17 6
44 50 66 19 9 33 20 32 26 -1 5 10 10 23 10 18 2 26 -4 30 -22z m64 12 c0 -3
-4 -8 -10 -11 -5 -3 -10 -1 -10 4 0 6 5 11 10 11 6 0 10 -2 10 -4z m-170 -16
c0 -5 -5 -10 -11 -10 -5 0 -7 5 -4 10 3 6 8 10 11 10 2 0 4 -4 4 -10z m-970
-70 c0 -5 -4 -10 -10 -10 -5 0 -10 5 -10 10 0 6 5 10 10 10 6 0 10 -4 10 -10z
m1125 -80 c3 -6 -1 -7 -9 -4 -18 7 -21 14 -7 14 6 0 13 -4 16 -10z m-1235
-160 c0 -5 -7 -10 -16 -10 -8 0 -12 5 -9 10 3 6 10 10 16 10 5 0 9 -4 9 -10z
m310 -70 c0 -15 -5 -12 -26 11 -19 22 -19 22 4 10 12 -6 22 -16 22 -21z m120
-28 c0 -7 -4 -10 -10 -7 -5 3 -10 16 -10 28 0 18 2 19 10 7 5 -8 10 -21 10
-28z m-77 6 c4 -10 8 -10 15 1 5 7 15 10 21 6 9 -5 9 -10 0 -21 -17 -20 -46
-17 -52 6 -6 22 8 28 16 8z m462 3 c3 -5 1 -13 -5 -16 -15 -9 -43 3 -35 15 8
13 32 13 40 1z m-497 -11 c15 -1 14 -3 -2 -15 -28 -21 -46 -19 -46 6 0 15 4
19 16 15 9 -3 23 -6 32 -6z m-1478 -150 c0 -5 -5 -10 -11 -10 -5 0 -7 5 -4 10
3 6 8 10 11 10 2 0 4 -4 4 -10z m60 0 c0 -5 -4 -10 -10 -10 -5 0 -10 5 -10 10
0 6 5 10 10 10 6 0 10 -4 10 -10z m1105 -60 c3 -5 2 -10 -4 -10 -5 0 -13 5
-16 10 -3 6 -2 10 4 10 5 0 13 -4 16 -10z m821 -37 c-11 -12 -27 13 -20 32 7
17 8 17 17 -3 6 -12 7 -25 3 -29z m-386 7 c0 -5 -4 -10 -10 -10 -5 0 -10 5
-10 10 0 6 5 10 10 10 6 0 10 -4 10 -10z m830 1 c0 -6 -4 -13 -10 -16 -5 -3
-10 1 -10 9 0 9 5 16 10 16 6 0 10 -4 10 -9z m-460 -21 c0 -5 -4 -10 -10 -10
-5 0 -10 5 -10 10 0 6 5 10 10 10 6 0 10 -4 10 -10z m43 -44 c11 -8 15 -20 11
-30 -6 -15 -9 -15 -30 5 -34 32 -18 53 19 25z m-53 -76 c0 -5 -4 -10 -10 -10
-5 0 -10 5 -10 10 0 6 5 10 10 10 6 0 10 -4 10 -10z m-1500 -136 c0 -8 -5 -12
-10 -9 -6 4 -8 11 -5 16 9 14 15 11 15 -7z m970 -238 c0 -11 -19 -15 -25 -6
-3 5 1 10 9 10 9 0 16 -2 16 -4z m-55 -36 c3 -5 1 -10 -4 -10 -6 0 -11 5 -11
10 0 6 2 10 4 10 3 0 8 -4 11 -10z m55 -18 c0 -13 -12 -22 -22 -16 -10 6 -1
24 13 24 5 0 9 -4 9 -8z m-410 -41 c0 -6 -4 -13 -10 -16 -5 -3 -10 1 -10 9 0
9 5 16 10 16 6 0 10 -4 10 -9z m105 -11 c-3 -5 -13 -10 -21 -10 -8 0 -14 5
-14 10 0 6 9 10 21 10 11 0 17 -4 14 -10z m235 -33 c0 -5 -4 -5 -10 -2 -5 3
-10 14 -10 23 0 15 2 15 10 2 5 -8 10 -19 10 -23z m-145 -318 c11 -17 -1 -21
-15 -4 -8 9 -8 15 -2 15 6 0 14 -5 17 -11z m5 -70 c0 -14 -16 -11 -29 5 -10
12 -8 13 8 9 12 -3 21 -9 21 -14z m40 11 c0 -5 -4 -10 -9 -10 -6 0 -13 5 -16
10 -3 6 1 10 9 10 9 0 16 -4 16 -10z m-85 -70 c3 -5 1 -10 -4 -10 -6 0 -11 5
-11 10 0 6 2 10 4 10 3 0 8 -4 11 -10z m-5 -407 c0 -14 -2 -15 -9 -4 -5 7 -13
11 -19 7 -6 -3 -13 -2 -17 4 -4 6 5 10 19 10 18 0 26 -5 26 -17z m139 -46 c-2
-1 -12 -9 -22 -16 -15 -12 -17 -12 -11 3 3 9 13 16 22 16 8 0 13 -1 11 -3z
m-269 -77 c0 -5 -2 -10 -4 -10 -3 0 -8 5 -11 10 -3 6 -1 10 4 10 6 0 11 -4 11
-10z"/>
<path d="M5250 3650 c0 -5 5 -10 11 -10 5 0 7 5 4 10 -3 6 -8 10 -11 10 -2 0
-4 -4 -4 -10z"/>
<path d="M4796 4408 c3 -5 10 -6 15 -3 13 9 11 12 -6 12 -8 0 -12 -4 -9 -9z"/>
<path d="M5564 4402 c3 -9 2 -32 -3 -50 -6 -20 -6 -32 0 -32 5 0 9 -9 9 -20 0
-11 7 -20 15 -20 8 0 15 -5 15 -11 0 -6 -9 -8 -20 -4 -18 6 -20 3 -15 -24 4
-24 2 -29 -9 -25 -8 3 -17 20 -19 37 -4 29 -5 30 -12 10 -4 -13 -11 -23 -16
-23 -5 0 -9 -9 -9 -21 0 -12 5 -19 12 -17 7 3 20 -5 29 -16 15 -18 18 -19 32
-4 9 9 14 18 11 21 -3 3 3 4 13 4 14 -2 18 4 16 28 -1 16 1 32 5 35 4 3 13 15
19 27 11 19 10 21 -2 17 -8 -4 -15 -1 -15 5 0 6 7 11 15 11 8 0 15 7 15 15 0
13 -4 14 -20 5 -24 -13 -24 8 0 27 13 10 13 12 -4 19 -11 4 -21 2 -26 -6 -6
-9 -10 -7 -15 9 -3 11 -11 21 -16 21 -6 0 -8 -8 -5 -18z m21 -41 c3 -5 1 -12
-5 -16 -5 -3 -10 1 -10 9 0 18 6 21 15 7z m20 -61 c3 -5 1 -10 -4 -10 -6 0
-11 5 -11 10 0 6 2 10 4 10 3 0 8 -4 11 -10z"/>
<path d="M4627 4370 c3 -11 9 -20 14 -20 11 0 11 3 3 24 -9 23 -23 20 -17 -4z"/>
<path d="M4650 4325 c0 -5 5 -17 10 -25 5 -8 10 -10 10 -5 0 6 -5 17 -10 25
-5 8 -10 11 -10 5z"/>
<path d="M5495 4299 c4 -12 -1 -22 -15 -29 -20 -11 -28 -40 -10 -40 6 0 10 4
10 8 0 17 37 52 54 52 25 0 11 17 -19 22 -21 4 -24 2 -20 -13z"/>
<path d="M5430 4260 c0 -5 5 -10 10 -10 6 0 10 5 10 10 0 6 -4 10 -10 10 -5 0
-10 -4 -10 -10z"/>
<path d="M5525 4170 c3 -5 8 -10 11 -10 2 0 4 5 4 10 0 6 -5 10 -11 10 -5 0
-7 -4 -4 -10z"/>
<path d="M5582 4146 c-1 -22 0 -23 23 -12 27 12 31 21 13 32 -7 5 -8 2 -3 -7
6 -11 5 -12 -6 -1 -19 17 -24 15 -27 -12z"/>
<path d="M5200 4120 c0 -5 5 -10 10 -10 6 0 10 5 10 10 0 6 -4 10 -10 10 -5 0
-10 -4 -10 -10z"/>
<path d="M5625 4111 c-3 -5 -1 -12 5 -16 5 -3 10 1 10 9 0 18 -6 21 -15 7z"/>
<path d="M2620 4065 c-8 -10 -23 -21 -35 -25 -19 -8 -18 -9 5 -11 26 -1 53 1
58 5 1 2 -1 13 -6 25 -7 21 -9 22 -22 6z"/>
<path d="M4080 3790 c0 -5 5 -10 11 -10 5 0 7 5 4 10 -3 6 -8 10 -11 10 -2 0
-4 -4 -4 -10z"/>
<path d="M4160 3774 c0 -16 9 -18 28 -5 10 6 9 10 -7 14 -14 3 -21 0 -21 -9z"/>
<path d="M4220 3775 c0 -9 6 -12 15 -9 8 4 15 10 15 15 0 5 -7 9 -15 9 -8 0
-15 -7 -15 -15z"/>
<path d="M5605 3750 c-3 -5 -2 -10 4 -10 5 0 13 5 16 10 3 6 2 10 -4 10 -5 0
-13 -4 -16 -10z"/>
<path d="M4060 3700 c0 -5 5 -10 10 -10 6 0 10 5 10 10 0 6 -4 10 -10 10 -5 0
-10 -4 -10 -10z"/>
<path d="M5622 3610 c0 -14 2 -19 5 -12 2 6 2 18 0 25 -3 6 -5 1 -5 -13z"/>
<path d="M2887 3420 c8 -8 9 -20 3 -36 -8 -21 -6 -24 11 -24 15 0 19 -5 15
-16 -3 -8 -2 -13 3 -10 5 3 11 20 13 36 4 27 0 33 -26 47 -18 9 -26 10 -19 3z"/>
<path d="M2948 3220 c2 -16 8 -27 13 -24 13 8 11 30 -4 43 -11 8 -13 5 -9 -19z"/>
<path d="M3196 3075 c4 -8 11 -15 16 -15 6 0 5 6 -2 15 -7 8 -14 15 -16 15 -2
0 -1 -7 2 -15z"/>
<path d="M3279 3060 c21 -18 51 -27 51 -16 0 5 -60 36 -69 36 -3 -1 5 -10 18
-20z"/>
<path d="M4898 3075 c-8 -8 2 -45 13 -45 4 0 11 5 15 11 7 12 -19 43 -28 34z"/>
<path d="M3239 3051 c6 -10 7 -21 4 -25 -3 -3 -1 -6 5 -6 18 0 15 37 -3 44
-12 4 -13 2 -6 -13z"/>
<path d="M4946 3061 c-4 -7 -5 -15 -2 -18 9 -9 19 4 14 18 -4 11 -6 11 -12 0z"/>
<path d="M3360 3052 c0 -4 6 -14 12 -20 7 -7 13 -27 14 -44 1 -18 10 -37 20
-45 11 -7 27 -20 37 -28 24 -21 27 -19 27 13 0 15 5 33 12 40 9 9 8 12 -4 12
-23 0 -34 20 -17 31 10 6 2 9 -23 9 -27 0 -41 6 -50 20 -13 20 -28 27 -28 12z"/>
<path d="M3283 3020 c-3 -10 -12 -21 -22 -23 -11 -3 -10 -5 5 -6 12 0 32 7 45
17 l22 19 -22 6 c-17 4 -24 1 -28 -13z"/>
<path d="M4931 3014 c0 -11 3 -14 6 -6 3 7 2 16 -1 19 -3 4 -6 -2 -5 -13z"/>
<path d="M4305 3010 c-3 -5 -1 -10 4 -10 6 0 11 5 11 10 0 6 -2 10 -4 10 -3 0
-8 -4 -11 -10z"/>
<path d="M4220 3000 c0 -5 5 -10 10 -10 6 0 10 5 10 10 0 6 -4 10 -10 10 -5 0
-10 -4 -10 -10z"/>
<path d="M4810 2964 c0 -14 3 -14 15 -4 8 7 15 14 15 16 0 2 -7 4 -15 4 -8 0
-15 -7 -15 -16z"/>
<path d="M4930 2970 c0 -5 4 -10 9 -10 6 0 13 5 16 10 3 6 -1 10 -9 10 -9 0
-16 -4 -16 -10z"/>
<path d="M4871 2954 c0 -11 3 -14 6 -6 3 7 2 16 -1 19 -3 4 -6 -2 -5 -13z"/>
<path d="M3480 2950 c0 -5 7 -7 15 -4 8 4 15 8 15 10 0 2 -7 4 -15 4 -8 0 -15
-4 -15 -10z"/>
<path d="M4840 2944 c0 -8 5 -12 10 -9 6 4 8 11 5 16 -9 14 -15 11 -15 -7z"/>
<path d="M3510 2935 c-16 -19 0 -19 26 0 16 12 16 14 3 15 -9 0 -22 -7 -29
-15z"/>
<path d="M4425 2920 c-9 -15 -1 -23 21 -18 15 3 16 4 1 16 -11 9 -17 10 -22 2z"/>
<path d="M4835 2909 c-10 -15 3 -25 16 -12 7 7 7 13 1 17 -6 3 -14 1 -17 -5z"/>
<path d="M3351 2901 c-8 -6 -9 -11 -3 -15 6 -3 14 -1 17 5 9 14 2 20 -14 10z"/>
<path d="M4796 2892 c-7 -11 31 -48 41 -38 4 3 -2 16 -14 27 -11 12 -23 17
-27 11z"/>
<path d="M4490 2880 c0 -5 5 -10 10 -10 6 0 10 5 10 10 0 6 -4 10 -10 10 -5 0
-10 -4 -10 -10z"/>
<path d="M4550 2872 c0 -11 11 -29 24 -39 l24 -19 -19 -40 c-21 -44 -24 -64
-9 -64 5 0 6 -7 3 -17 -4 -10 -2 -14 5 -9 6 3 16 -2 21 -13 7 -13 18 -17 31
-14 11 3 17 9 14 14 -3 5 0 9 6 9 15 0 41 -65 34 -84 -3 -9 -1 -16 5 -16 6 0
11 6 11 13 0 7 9 20 20 30 22 19 18 42 -6 33 -16 -6 -18 3 -5 23 7 11 13 9 30
-8 11 -11 26 -21 31 -21 17 0 11 19 -10 32 -23 15 -27 38 -5 38 8 0 15 6 15
14 0 8 7 17 16 20 14 5 14 7 0 22 -21 20 -21 41 -1 24 12 -10 15 -10 15 4 0 9
-7 16 -15 16 -8 0 -15 5 -15 11 0 11 15 4 43 -19 20 -18 21 -12 6 21 -10 23
-14 24 -46 14 -25 -8 -40 -8 -53 1 -15 9 -19 8 -22 -6 -3 -15 -6 -14 -27 7
-17 17 -25 20 -31 11 -5 -8 -10 -9 -14 -2 -3 6 -14 9 -24 7 -9 -1 -25 4 -34
13 -16 14 -18 13 -18 -6z m120 -131 c0 -6 -4 -13 -10 -16 -5 -3 -10 1 -10 9 0
9 5 16 10 16 6 0 10 -4 10 -9z"/>
<path d="M4930 2861 c13 -10 13 -12 0 -20 -8 -6 -11 -13 -7 -18 5 -4 12 -2 16
5 4 7 14 12 21 10 7 -2 15 3 17 10 3 6 -2 12 -10 12 -9 0 -24 3 -34 6 -15 5
-16 4 -3 -5z"/>
<path d="M4480 2805 c0 -8 5 -15 10 -15 6 0 10 7 10 15 0 8 -4 15 -10 15 -5 0
-10 -7 -10 -15z"/>
<path d="M4540 2806 c0 -9 5 -16 10 -16 6 0 10 4 10 9 0 6 -4 13 -10 16 -5 3
-10 -1 -10 -9z"/>
<path d="M3618 2793 c7 -3 16 -2 19 1 4 3 -2 6 -13 5 -11 0 -14 -3 -6 -6z"/>
<path d="M4815 2740 c3 -5 8 -10 11 -10 2 0 4 5 4 10 0 6 -5 10 -11 10 -5 0
-7 -4 -4 -10z"/>
<path d="M4440 2720 c0 -5 5 -10 10 -10 6 0 10 5 10 10 0 6 -4 10 -10 10 -5 0
-10 -4 -10 -10z"/>
<path d="M4450 2689 c-11 -8 -12 -12 -2 -16 6 -2 10 -9 6 -14 -3 -5 0 -9 6 -9
7 0 10 6 7 14 -3 7 0 19 6 25 14 14 -3 14 -23 0z"/>
<path d="M4425 2630 c3 -5 10 -10 16 -10 5 0 9 5 9 10 0 6 -7 10 -16 10 -8 0
-12 -4 -9 -10z"/>
<path d="M4490 2630 c0 -5 7 -10 15 -10 8 0 15 5 15 10 0 6 -7 10 -15 10 -8 0
-15 -4 -15 -10z"/>
<path d="M4390 2600 c0 -5 5 -10 10 -10 6 0 10 5 10 10 0 6 -4 10 -10 10 -5 0
-10 -4 -10 -10z"/>
<path d="M4330 2570 c0 -5 5 -10 11 -10 5 0 7 5 4 10 -3 6 -8 10 -11 10 -2 0
-4 -4 -4 -10z"/>
<path d="M4298 2538 c9 -9 15 -9 24 0 9 9 7 12 -12 12 -19 0 -21 -3 -12 -12z"/>
<path d="M4170 2481 c0 -24 34 -22 38 2 2 12 -3 17 -17 17 -14 0 -21 -6 -21
-19z"/>
<path d="M3950 2150 c0 -5 5 -10 10 -10 6 0 10 5 10 10 0 6 -4 10 -10 10 -5 0
-10 -4 -10 -10z"/>
<path d="M4193 1895 c4 -12 67 -20 67 -8 0 4 21 7 48 5 35 -2 43 0 32 8 -19
13 -151 9 -147 -5z"/>
<path d="M4128 1483 c7 -3 16 -2 19 1 4 3 -2 6 -13 5 -11 0 -14 -3 -6 -6z"/>
</g>
</svg>
